# xmcd CD database file
#
# Track frame offsets:
#	150
#	21858
#	38405
#	60115
#
# Disc length: 1020 seconds
#
# Revision: 5
# Processed by: cddbd v1.5.2PL0 Copyright (c) Steve Scherf et al.
# Submitted via: CDex 1.70beta3
#
DISCID=1f03fa04
DTITLE=Savage Genius - Forever
DYEAR=2005
DGENRE=JPop
TTITLE0=Forever...
TTITLE1=雨あがり
TTITLE2=Forever...(without vocal)
TTITLE3=雨あがり(without vocal)
EXTD=YEAR: 2005
EXTT0=
EXTT1=
EXTT2=
EXTT3=
PLAYORDER=
